# xmcd
#
# Track frame offsets:
#	150
#	17916
#	34499
#	51376
#	66523
#	83194
#	99746
#	116883
#	131054
#
# Disc length: 1948
#
# Revision: 2
# Processed by: cddbd v1.5.2PL0 Copyright (c) Steve Scherf et al.
# Submitted via: kJams Lite (Tryout) (development) 1.0patch47.24
#
DISCID=8a079a09
DTITLE=Various Artist - PHM0709
DYEAR=2007
DGENRE=Country
TTITLE0=Paisley, Brad - Online
TTITLE1=Chesney, Kenny - Never Wanted Nothing More
TTITLE2=Keith, Toby - Love Me If You Can
TTITLE3=Brooks and Dunn - Proud Of The House We Built
TTITLE4=Evans, Sara - As If
TTITLE5=Shelton, Blake - The More I Drink
TTITLE6=Meadows, Jason - 100% Cowboy
TTITLE7=Brice, Lee - She Ain't Right
TTITLE8=Bentley, Dierks - Free And Easy
EXTD=
EXTT0=
EXTT1=
EXTT2=
EXTT3=
EXTT4=
EXTT5=
EXTT6=
EXTT7=
EXTT8=
PLAYORDER=
